<?xml version="1.0" encoding="UTF-8" standalone="no"?>
<!DOCTYPE svg PUBLIC "-//W3C//DTD SVG 1.1//EN" "http://www.w3.org/Graphics/SVG/1.1/DTD/svg11.dtd">
<svg width="100%" height="100%" viewBox="0 0 301 314" version="1.1" xmlns="http://www.w3.org/2000/svg" xmlns:xlink="http://www.w3.org/1999/xlink" xml:space="preserve" xmlns:serif="http://www.serif.com/" style="fill-rule:evenodd;clip-rule:evenodd;stroke-linejoin:round;stroke-miterlimit:2;">
    <g transform="matrix(1,0,0,1,-295.538292,706.368828)">
        <g transform="matrix(1,0,0,1,334.137849,201.620662)">
            <g transform="matrix(0.437401,0,0,0.437401,-3278.714096,-3655.828103)">
                <g transform="matrix(1,-0.000227,0.000227,1,-553.440268,2911.080595)">
                    <g transform="matrix(930.113083,0,0,930.113083,7923.118088,4078.091043)">
                        <path d="M0.63,-0.254C0.576,-0.174 0.5,-0.135 0.423,-0.135C0.298,-0.135 0.199,-0.241 0.199,-0.372C0.199,-0.504 0.298,-0.61 0.423,-0.61C0.497,-0.61 0.572,-0.571 0.623,-0.491L0.744,-0.577C0.678,-0.686 0.558,-0.758 0.422,-0.758C0.21,-0.758 0.04,-0.585 0.04,-0.372C0.04,-0.159 0.21,0.013 0.423,0.013C0.561,0.013 0.681,-0.059 0.75,-0.168L0.63,-0.254Z" style="fill:rgb(255,0,0);fill-rule:nonzero;"/>
                    </g>
                    <g transform="matrix(930.113083,0,0,930.113083,7923.118088,4078.091043)">
                    </g>
                    <g transform="matrix(930.113083,0,0,930.113083,8640.235275,4078.091043)">
                    </g>
                </g>
                <g transform="matrix(1.191479,0,0,1.191479,-3445.216846,-1371.165271)">
                    <g transform="matrix(170.879218,0,0,170.879218,9264.560492,6792.872801)">
                        <path d="M1.03,-0L1.03,-0.14L0.723,-0.14L0.723,-0.326L1.003,-0.326L1.003,-0.466L0.723,-0.466L0.723,-0.605L0.964,-0.605L0.964,-0.745L0.568,-0.745L0.568,-0.466L0.226,-0.466L0.226,-0.745L0.071,-0.745L0.071,-0L0.226,-0L0.226,-0.326L0.568,-0.326L0.568,-0L1.03,-0Z" style="fill:rgb(255,0,0);fill-rule:nonzero;"/>
                    </g>
                    <g transform="matrix(170.879218,0,0,170.879218,9264.560492,6792.872801)">
                    </g>
                    <g transform="matrix(170.879218,0,0,170.879218,9366.909996,6792.872801)">
                    </g>
                    <g transform="matrix(170.879218,0,0,170.879218,9438.857295,6792.872801)">
                        <path d="M0.535,-0.994L0.417,-0.808L0.55,-0.808L0.628,-0.927L0.535,-0.994ZM0.071,-0.745L0.071,-0L0.671,-0L0.671,-0.14L0.226,-0.14L0.226,-0.745L0.071,-0.745ZM0.671,-0.222L0.671,-0.345L0.469,-0.345L0.469,-0.442L0.653,-0.442L0.653,-0.563L0.469,-0.563L0.469,-0.622L0.627,-0.622L0.627,-0.745L0.336,-0.745L0.336,-0.222L0.671,-0.222Z" style="fill:rgb(255,0,0);fill-rule:nonzero;"/>
                    </g>
                    <g transform="matrix(170.879218,0,0,170.879218,9438.857295,6792.872801)">
                    </g>
                    <g transform="matrix(170.879218,0,0,170.879218,9495.205475,6792.872801)">
                    </g>
                    <g transform="matrix(170.879218,0,0,170.879218,9696.543155,6792.872801)">
                    </g>
                    <text x="9555.226px" y="6792.873px" style="font-family:'Sifonn-Pro', 'Sifonn';font-weight:700;font-size:170.879px;fill:rgb(255,0,0);"><tspan x="9555.226px " y="6792.873px ">N</tspan></text>
                </g>
            </g>
        </g>
    </g>
</svg>
